<svg width="600" height="600" viewBox="0 0 600 600" fill="none" xmlns="http://www.w3.org/2000/svg">
<path d="M60 151.5V306.805V462.609L191 506.305L322 550V392.697V235.394L191 193.197L60 151.5Z" fill="#25BC42"/>
<path d="M191 193.197L322 235.394V392.697M191 193.197L60 151.5V306.805M191 193.197V506.305M191 506.305L60 462.609V306.805M191 506.305L322 550V392.697M322 392.697L60 306.805" stroke="black" stroke-width="5"/>
<path d="M324.5 235V392.25L323.5 549.5L432.506 498.25L540.511 447V290.25L539 136L432.506 184.25L324.5 235Z" fill="#FF552B"/>
<path d="M432.506 184.25L539 136L540.511 290.25M432.506 184.25L324.5 235V392.25M432.506 184.25V498.25M432.506 498.25L323.5 549.5L324.5 392.25M432.506 498.25L540.511 447V290.25M540.511 290.25L324.5 392.25" stroke="black" stroke-width="5"/>
<path d="M63.5 151.727L193.248 193.863L322.995 236L430.748 185.635L538.5 135.271L409.247 92.6354L279.993 50L171.747 100.863L63.5 151.727Z" fill="#FCE646"/>
<path d="M193.248 193.863L63.5 151.727L171.747 100.863M193.248 193.863L322.995 236L430.748 185.635M193.248 193.863L409.247 92.6354M409.247 92.6354L538.5 135.271L430.748 185.635M409.247 92.6354L279.993 50L171.747 100.863M430.748 185.635L171.747 100.863" stroke="black" stroke-width="5"/>
</svg>
